<?xml version="1.0" standalone="no"?><!DOCTYPE svg PUBLIC "-//W3C//DTD SVG 1.1//EN" "http://www.w3.org/Graphics/SVG/1.1/DTD/svg11.dtd"><svg t="1586859576880" class="icon" viewBox="0 0 1024 1024" version="1.1" xmlns="http://www.w3.org/2000/svg" p-id="1790" xmlns:xlink="http://www.w3.org/1999/xlink" width="200" height="200"><defs><style type="text/css"></style></defs><path d="M328.33 526.43m-26.9 0a26.9 26.9 0 1 0 53.8 0 26.9 26.9 0 1 0-53.8 0Z" p-id="1791"></path><path d="M706.49 527.44m-26.9 0a26.9 26.9 0 1 0 53.8 0 26.9 26.9 0 1 0-53.8 0Z" p-id="1792"></path><path d="M610.81 664.21a8 8 0 0 0-8 8 41.52 41.52 0 1 1-83 0 8 8 0 0 0-16.07 0 41.52 41.52 0 1 1-83 0 8 8 0 0 0-16.07 0 57.58 57.58 0 0 0 107.15 29.3 57.57 57.57 0 0 0 107.14-29.3 8 8 0 0 0-8.15-8z" p-id="1793"></path><path d="M926.89 572.21A262.52 262.52 0 0 0 904 465.45c3.53-12.49 15.55-62.74 15.55-167.33 0-105.21-25.21-163.14-43.1-170.68a12.2 12.2 0 0 0-13.69 2.35L705 284c-118.32-48.78-267.69-48.78-386 0L161.23 129.79a12.22 12.22 0 0 0-13.7-2.35c-17.89 7.53-43.09 65.4-43.09 170.51 0 104.75 12 155 15.55 167.51a262.33 262.33 0 0 0-22.88 106.75v42.86a294.31 294.31 0 0 0 3.39 44.88v0.27a8 8 0 0 0 0.53 2.85 260.73 260.73 0 0 0 42.62 106.27 8 8 0 0 0 4.06 5.71c55.74 76.18 153.76 122.63 274.88 122.63h178.83c121.12 0 219.14-46.44 274.88-122.63a8 8 0 0 0 4.06-5.71A260.73 260.73 0 0 0 923 663a8 8 0 0 0 0.5-2.77v-0.19a294.29 294.29 0 0 0 3.4-45zM601.42 881.6H422.58c-125.33 0-210-46-258.7-110.88l64.43-33.09a8 8 0 0 0-7.35-14.3l-66.41 34.11a254.24 254.24 0 0 1-36.13-89.19h106.22a8 8 0 1 0 0-16.07H115.71a273.06 273.06 0 0 1-2.53-37.11v-42.86a246.89 246.89 0 0 1 22.68-102.87l1.3-2.88-1-3c-0.16-0.47-15.66-48.56-15.66-165.52 0-100.51 22.71-146.49 31.63-154.56L315.39 303l4.94-2.1c116.79-49.8 266.48-49.81 383.31 0l4.94 2.1 163.25-159.6c8.93 8.12 31.64 54.19 31.64 154.72 0 116.79-15.47 164.88-15.67 165.35l-1 3 1.3 2.86a247.07 247.07 0 0 1 22.7 102.87v42.86a273.06 273.06 0 0 1-2.53 37.11H799.36a8 8 0 1 0 0 16.07h106.21a254.24 254.24 0 0 1-36.13 89.19L803 723.34a8 8 0 0 0-7.35 14.3l64.43 33.09C811.47 835.56 726.75 881.6 601.42 881.6z" p-id="1794"></path><path d="M233 342.2c-52.08-35.34-53.38-106.25-53.4-108.6a8 8 0 0 0-16-1.1c-0.08 0.76 0.39 82.27 60.41 123a8 8 0 1 0 9-13.29zM800.27 355.5c60-40.72 60.49-122.23 60.41-123a8 8 0 0 0-16 1c0 0.72-0.71 72.9-53.4 108.65a8 8 0 1 0 9 13.29z" p-id="1795"></path></svg>